<svg width="107" height="64" viewBox="0 0 107 64" fill="none" xmlns="http://www.w3.org/2000/svg">
<mask id="path-1-inside-1" fill="white">
<path fill-rule="evenodd" clip-rule="evenodd" d="M0.439941 32.0002C10.4053 12.9785 30.337 0 53.3001 0C76.2629 0 96.1945 12.9782 106.16 31.9998C96.1946 51.0215 76.2628 64 53.2998 64C30.337 64 10.4054 51.0218 0.439941 32.0002Z"/>
</mask>
<path d="M0.439941 32.0002L-0.44586 31.5362L-0.688982 32.0002L-0.445856 32.4643L0.439941 32.0002ZM106.16 31.9998L107.046 32.4638L107.289 31.9998L107.046 31.5357L106.16 31.9998ZM1.32574 32.4643C11.1253 13.759 30.7235 1 53.3001 1V-1C29.9506 -1 9.68526 12.1979 -0.44586 31.5362L1.32574 32.4643ZM53.3001 1C75.8764 1 95.4745 13.7588 105.274 32.4638L107.046 31.5357C96.9145 12.1977 76.6493 -1 53.3001 -1V1ZM105.274 31.5357C95.4746 50.241 75.8764 63 53.2998 63V65C76.6493 65 96.9146 51.8021 107.046 32.4638L105.274 31.5357ZM53.2998 63C30.7234 63 11.1254 50.2412 1.32574 31.5362L-0.445856 32.4643C9.68534 51.8023 29.9505 65 53.2998 65V63Z" fill="#FAFBFF" mask="url(#path-1-inside-1)"/>
<circle cx="52.8152" cy="31.9999" r="26.6515" stroke="#FAFBFF"/>
<circle cx="52.8153" cy="32" r="22.7727" stroke="#FAFBFF"/>
<circle cx="52.8153" cy="31.9999" r="18.8939" stroke="#FAFBFF"/>
<circle cx="52.8153" cy="32" r="15.0152" stroke="#FAFBFF"/>
<circle cx="52.8153" cy="31.9999" r="11.1364" stroke="#FAFBFF"/>
<circle cx="52.8153" cy="32" r="7.25758" stroke="#FAFBFF"/>
</svg>
