<svg width="235" height="64" viewBox="0 0 235 64" fill="none" xmlns="http://www.w3.org/2000/svg">
<rect x="5.62085" y="5.07129" width="53.8571" height="53.8571" stroke="#FAFBFF"/>
<rect x="10.1925" y="9.64307" width="44.7143" height="44.7143" stroke="#FAFBFF"/>
<rect x="14.7639" y="14.2144" width="35.5714" height="35.5714" stroke="#FAFBFF"/>
<rect x="19.3352" y="18.7856" width="26.4286" height="26.4286" stroke="#FAFBFF"/>
<rect x="23.9066" y="23.3569" width="17.2857" height="17.2857" stroke="#FAFBFF"/>
<rect x="1.04956" y="0.5" width="63" height="63" stroke="#FAFBFF"/>
<circle cx="112.55" cy="32" r="31.5" stroke="#FAFBFF"/>
<circle cx="112.55" cy="32.0001" r="26.9286" stroke="#FAFBFF"/>
<circle cx="112.55" cy="32" r="22.3571" stroke="#FAFBFF"/>
<circle cx="112.55" cy="32.0001" r="17.7857" stroke="#FAFBFF"/>
<circle cx="112.55" cy="31.9999" r="13.2143" stroke="#FAFBFF"/>
<circle cx="112.55" cy="32" r="8.64286" stroke="#FAFBFF"/>
<path fill-rule="evenodd" clip-rule="evenodd" d="M197.5 0L160.55 64H234.45L197.5 0ZM197.5 2.43809L162.661 62.781H232.339L197.5 2.43809Z" fill="#FAFBFF"/>
<path fill-rule="evenodd" clip-rule="evenodd" d="M197.5 8.53333L167.94 59.7333H227.06L197.5 8.53333ZM197.5 10.9714L170.051 58.5143H224.949L197.5 10.9714Z" fill="#FAFBFF"/>
<path fill-rule="evenodd" clip-rule="evenodd" d="M197.5 18.2857L176.385 54.8571H218.614L197.5 18.2857ZM197.5 20.7238L178.497 53.6381H216.503L197.5 20.7238Z" fill="#FAFBFF"/>
<path fill-rule="evenodd" clip-rule="evenodd" d="M197.5 26.819L183.776 50.5905H211.224L197.5 26.819ZM197.5 29.2571L185.887 49.3714H209.113L197.5 29.2571Z" fill="#FAFBFF"/>
<path fill-rule="evenodd" clip-rule="evenodd" d="M197.5 34.1333L190.11 46.9333H204.89L197.5 34.1333ZM197.5 36.5714L192.221 45.7143H202.779L197.5 36.5714Z" fill="#FAFBFF"/>
</svg>
