<svg width="40" height="65" viewBox="0 0 40 65" fill="none" xmlns="http://www.w3.org/2000/svg">
<rect x="8.5" y="13.5" width="23" height="23" stroke="#FAFBFF"/>
<path d="M31.4 13C31.4 6.37258 26.296 1 20 1C13.7039 1 8.59998 6.37258 8.59998 13" stroke="#FAFBFF"/>
<path d="M20.7667 24.2748L20.6071 23.8009L20.1628 23.9506L20.2836 24.4036L20.7667 24.2748ZM19.2334 24.2748L19.7165 24.4037L19.8373 23.9506L19.393 23.801L19.2334 24.2748ZM17.6001 30.3999L17.1169 30.2711L16.9493 30.8999H17.6001V30.3999ZM22.4001 30.3999V30.8999H23.0509L22.8832 30.2711L22.4001 30.3999ZM21.9 21.9999C21.9 22.8362 21.3593 23.5475 20.6071 23.8009L20.9263 24.7486C22.0731 24.3623 22.9 23.2783 22.9 21.9999H21.9ZM20 20.0999C21.0493 20.0999 21.9 20.9505 21.9 21.9999H22.9C22.9 20.3982 21.6016 19.0999 20 19.0999V20.0999ZM18.1 21.9999C18.1 20.9505 18.9506 20.0999 20 20.0999V19.0999C18.3983 19.0999 17.1 20.3982 17.1 21.9999H18.1ZM19.393 23.801C18.6407 23.5476 18.1 22.8362 18.1 21.9999H17.1C17.1 23.2784 17.927 24.3624 19.0738 24.7487L19.393 23.801ZM18.0832 30.5288L19.7165 24.4037L18.7503 24.146L17.1169 30.2711L18.0832 30.5288ZM22.4001 29.8999H17.6001V30.8999H22.4001V29.8999ZM20.2836 24.4036L21.9169 30.5288L22.8832 30.2711L21.2498 24.1459L20.2836 24.4036Z" fill="#FAFBFF"/>
<line y1="44.5" x2="40" y2="44.5" stroke="#FAFBFF"/>
<line y1="48.5" x2="40" y2="48.5" stroke="#FAFBFF"/>
<line y1="52.5" x2="40" y2="52.5" stroke="#FAFBFF"/>
<line y1="56.5" x2="40" y2="56.5" stroke="#FAFBFF"/>
<line y1="60.5" x2="40" y2="60.5" stroke="#FAFBFF"/>
<line y1="64.5" x2="40" y2="64.5" stroke="#FAFBFF"/>
</svg>
