<svg width="75" height="64" viewBox="0 0 75 64" fill="none" xmlns="http://www.w3.org/2000/svg">
<path fill-rule="evenodd" clip-rule="evenodd" d="M37.3 0L0.349609 64H74.2504L37.3 0ZM37.3 2.43809L2.46106 62.781H72.139L37.3 2.43809Z" fill="#FAFBFF"/>
<path fill-rule="evenodd" clip-rule="evenodd" d="M37.3 8.53333L7.73964 59.7333H66.8603L37.3 8.53333ZM37.3 10.9714L9.85109 58.5143H64.7489L37.3 10.9714Z" fill="#FAFBFF"/>
<path fill-rule="evenodd" clip-rule="evenodd" d="M37.3 18.2857L16.1855 54.8571H58.4145L37.3 18.2857ZM37.3 20.7238L18.2969 53.6381H56.3031L37.3 20.7238Z" fill="#FAFBFF"/>
<path fill-rule="evenodd" clip-rule="evenodd" d="M37.3001 26.819L23.5757 50.5905H51.0245L37.3001 26.819ZM37.3001 29.2571L25.6871 49.3714H48.9131L37.3001 29.2571Z" fill="#FAFBFF"/>
<path fill-rule="evenodd" clip-rule="evenodd" d="M37.3 34.1333L29.9099 46.9333H44.69L37.3 34.1333ZM37.3 36.5714L32.0213 45.7143H42.5786L37.3 36.5714Z" fill="#FAFBFF"/>
</svg>
